<svg xmlns="http://www.w3.org/2000/svg" viewBox="0 0 443.6 141.1"><defs><style>      .cls-1 {        fill: #085fb0;      }    </style></defs><g><g id="Camada_1"><g><path class="cls-1" d="M430.3,70.3c-9.4-2.3-18.8,3.5-21,12.8s3.5,18.8,12.8,21c9.4,2.3,18.8-3.5,21-12.8,2.3-9.3-3.5-18.8-12.8-21ZM421.9,98.2l-5.9-8.8c-.1-.5.2-.9.7-.9h4.3c.3,0,.5.3.7.5l1.9,2.8c-.1.5-1.7,6.4-1.7,6.4ZM433.2,76.7l-5.2,21.6c-.1.4-.5.7-.9.7h-3c-.6,0-1-.6-.9-1.1l5.2-21.6c.1-.4.5-.7.9-.7h3c.6,0,1.1.6.9,1.1Z"></path><path class="cls-1" d="M27.1,86.4H4.1c-3.2,0-5.3,2.1-3.3,5.3h0l30.1,45.2,7.8-32.9s-11.6-17.6-11.6-17.6Z"></path><g><path class="cls-1" d="M148.4,23.2l-13.1,57.7c-5.2,4.4-10.8,6.5-16.8,6.5s-5-.6-5.7-1.7-1-2.4-.9-3.8.3-2.7.6-4.1l12.5-54.6h-25.5l-12.5,54c-.8,3.3-1.4,6.8-1.7,10.6-.3,3.8.2,7.3,1.4,10.7,1.1,2.7,3.1,4.8,6,6.4s7.1,2.3,12.4,2.3,9.9-.8,13.7-2.3c3.8-1.6,8-4.1,12.6-7.5l2.5,8.3h21l18.9-82.4c0,0-25.4,0-25.4,0Z"></path><path class="cls-1" d="M384.6,23.7c-6.9-1.5-13.4-2.2-19.7-2.2s-11.7.5-16.2,1.6c-2.7.5-5.1,1.3-7.1,2.3s-4.2,2.5-6.5,4.3c-2.4,1.8-4.5,4-6.3,6.5s-3.6,5.7-5.4,9.5-3.4,8.5-5,14.1c-1.5,5.6-2.5,11.5-3,17.7-.4,6.2.4,11.8,2.6,16.7,3.8,8.3,9.9,12.4,18.3,12.4s9.5-.9,14.1-2.6,8-3.9,10.2-6.7l3.3,8.2h19.9l16.2-74.2c-3.4-3.6-8.5-6.1-15.4-7.6h0ZM364.2,77.7c-3.5,5.3-8.6,7.9-15.5,7.9s-7.7-3.5-7.2-10.4c.2-3.2,1-7.8,2.2-13.8,1.1-5.2,2.5-9.2,4.3-12,.8-1.5,1.6-2.7,2.4-3.7s1.7-1.8,2.8-2.3c1.1-.6,2-1,2.8-1.3s1.9-.6,3.2-.9c1.3-.3,3.2-.4,5.6-.4s4.8.5,7.1,1.6l-7.7,35.3h0Z"></path><path class="cls-1" d="M316.1,22.3h-16.2L304.9,0h-21.5l-8.9,22.3h-64.3c-8,0-14.1,1.7-18.3,5.2s-7.1,8.6-8.7,15.3l-1.8,7.3c-.3,1.9-.6,4-.8,6.3s.1,4.8.9,7.3c2.4,7.8,8.6,11.7,18.8,11.7h16.8c1.2,0,2.3.2,3.1.6s1,1.6.5,3.6l-.6,2.7c-.7,2.7-2.5,4.1-5.4,4.1h-37.7l-3.4,15.5c1.6,1.8,5.9,3,12.6,3.9,2.7.3,6.2,1,10.7,1.2s8.1.7,11.1.7h12.1c5.1,0,9.9-1.5,14.2-3.7,5.2-2.7,8.7-8.3,10.5-16.5l2.2-9.4c.3-1.7.5-3.4.7-5,.3-4.6-.6-8.6-2.6-12-2.9-4.8-8.2-7.2-15.8-7.2h-20.4c-.1,0-.3,0-.5-.2-.3,0-.4-.2-.5-.4s-.3-.4-.5-.7-.1-1.2.3-2.6l.5-2.6c.4-1.6,1.1-2.4,1.9-3.1.9-.7,2.3-.7,4.3-.7h97.5l4.5-20.5-.3-.8h0Z"></path><path class="cls-1" d="M288.5,85.1c-.6-.8-.9-1.9-1.1-3.3s-.2-2.9-.1-4.3.5-3.2,1.2-5.8l5.1-22h-25.5l-6.1,26.6c-.7,3-1.2,5.7-1.4,8.3-.4,6,.5,11.2,2.9,14.5,3.4,4.9,8.7,7.8,15.8,7.8h16.6l3.4-16c-.5,0-2.3-1-5.5-2.4s-4.7-2.6-5.3-3.4h0Z"></path><path class="cls-1" d="M82.3,22.3h-15.4c-2.2,0-4,1.3-4.5,3.4l-26.6,109.6c-.7,2.9,1.5,5.8,4.5,5.8h15.4c2.2,0,4-1.6,4.5-3.7l26.6-109.5c.7-2.9-1.5-5.6-4.5-5.6Z"></path></g></g></g></g></svg>